M48
;DRILL file {Pcbnew (2013-jul-07)-stable} date Sat Oct 17 16:48:26 2015
;FORMAT={-:-/ absolute / inch / decimal}
FMAT,2
INCH,TZ
T1C0.016
T2C0.032
T3C0.039
T4C0.047
T5C0.055
T6C0.059
T7C0.069
T8C0.091
T9C0.130
T10C0.165
%
G90
G05
M72
T1
X3.405Y-1.885
X3.591Y-5.034
X3.591Y-5.1127
X3.591Y-5.2308
X3.591Y-5.3095
X3.625Y-1.95
X3.625Y-2.08
X3.63Y-2.54
X3.63Y-2.72
X3.63Y-2.86
X3.63Y-3.795
X3.63Y-4.175
X3.63Y-4.315
X3.63Y-4.47
X3.63Y-4.7
X3.6303Y-5.0733
X3.6303Y-5.2702
X3.635Y-3.085
X3.635Y-3.375
X3.635Y-3.52
X3.635Y-3.665
X3.6697Y-5.034
X3.6697Y-5.1127
X3.6697Y-5.2308
X3.6697Y-5.3883
X3.6698Y-5.3095
X3.6894Y-3.3312
X3.7091Y-2.534
X3.7091Y-5.0733
X3.7091Y-5.2702
X3.7091Y-5.3489
X3.7485Y-5.034
X3.7485Y-5.1127
X3.7485Y-5.2308
X3.7485Y-5.3095
X3.7485Y-5.3883
X3.778Y-2.5832
X3.778Y-3.3804
X3.778Y-4.0792
X3.778Y-4.1777
X3.7878Y-5.0733
X3.79Y-5.955
X3.792Y-5.775
X3.792Y-5.859
X3.8075Y-1.9336
X3.8075Y-1.9631
X3.8075Y-2.1501
X3.8075Y-2.1796
X3.8075Y-2.721
X3.8075Y-2.7505
X3.8075Y-2.9375
X3.8075Y-2.967
X3.8075Y-3.4887
X3.8075Y-3.5182
X3.8075Y-3.7347
X3.8075Y-3.7643
X3.8075Y-4.2859
X3.8075Y-4.3155
X3.8075Y-4.5025
X3.8075Y-4.532
X3.8272Y-5.034
X3.8272Y-5.1127
X3.8272Y-5.1914
X3.8272Y-5.3489
X3.848Y-5.812
X3.8567Y-2.534
X3.862Y-5.909
X3.8666Y-3.3312
X3.8666Y-5.0733
X3.8666Y-5.2308
X3.8666Y-5.3095
X3.894Y-5.767
X3.895Y-2.255
X3.8961Y-4.0694
X3.8961Y-5.2702
X3.8963Y-5.8607
X3.904Y-5.956
X3.9059Y-5.034
X3.9059Y-5.1127
X3.9059Y-5.1914
X3.9059Y-5.3489
X3.9453Y-5.0733
X3.9453Y-5.2308
X3.9453Y-5.3095
X3.949Y-5.812
X3.959Y-5.902
X3.9847Y-5.034
X3.9847Y-5.1127
X3.9847Y-5.1914
X3.9847Y-5.3489
X3.997Y-5.765
X4.Y-5.856
X4.0044Y-2.2584
X4.006Y-5.955
X4.0142Y-3.9218
X4.024Y-2.3371
X4.024Y-3.0261
X4.024Y-4.7288
X4.024Y-5.0733
X4.0339Y-3.0753
X4.0339Y-3.1147
X4.0339Y-4.6107
X4.0339Y-4.6599
X4.0437Y-2.2584
X4.0437Y-3.784
X4.0437Y-3.8627
X4.0634Y-2.4355
X4.0634Y-3.2328
X4.0634Y-4.03
X4.0634Y-5.034
X4.0634Y-5.1127
X4.0733Y-1.9729
X4.0733Y-2.534
X4.0733Y-2.7603
X4.0733Y-2.8981
X4.0733Y-3.3312
X4.0733Y-3.5576
X4.0733Y-3.6954
X4.0733Y-4.1284
X4.0733Y-4.3548
X4.0733Y-4.4926
X4.0733Y-4.8371
X4.0734Y-2.1109
X4.0979Y-2.972
X4.1028Y-2.1895
X4.1225Y-1.8647
X4.1225Y-2.6521
X4.1225Y-3.4493
X4.1225Y-4.2466
X4.1372Y-3.7987
X4.1372Y-4.596
X4.1422Y-1.8253
X4.1422Y-2.6029
X4.1422Y-3.4001
X4.1422Y-4.1973
X4.1717Y-2.2584
X4.1717Y-3.0458
X4.1815Y-1.845
X4.1815Y-2.6225
X4.1815Y-3.843
X4.1815Y-4.217
X4.1815Y-4.6403
X4.1818Y-3.4201
X4.1906Y-3.1147
X4.1929Y-3.9218
X4.1969Y-4.7288
X4.2005Y-2.3371
X4.2209Y-1.8253
X4.2209Y-1.904
X4.2209Y-1.9434
X4.2209Y-2.0123
X4.2209Y-2.0812
X4.2209Y-2.1403
X4.2209Y-2.1796
X4.2209Y-2.219
X4.2209Y-2.6029
X4.2209Y-2.6914
X4.2209Y-2.7308
X4.2209Y-2.7997
X4.2209Y-2.8686
X4.2209Y-2.9277
X4.2209Y-2.967
X4.2209Y-3.0064
X4.2209Y-3.4001
X4.2209Y-3.4887
X4.2209Y-3.5281
X4.2209Y-3.5969
X4.2209Y-3.656
X4.2209Y-3.7249
X4.2209Y-3.7643
X4.2209Y-3.8036
X4.2209Y-4.1973
X4.2209Y-4.2859
X4.2209Y-4.3253
X4.2209Y-4.3942
X4.2209Y-4.4532
X4.2209Y-4.5221
X4.2209Y-4.5615
X4.2209Y-4.6009
X4.26Y-3.4201
X4.26Y-3.5087
X4.26Y-3.7446
X4.26Y-3.784
X4.26Y-3.823
X4.26Y-4.5418
X4.26Y-4.5812
X4.26Y-4.6203
X4.2601Y-2.6227
X4.2601Y-2.7113
X4.2601Y-2.9473
X4.2601Y-2.9867
X4.2601Y-3.0259
X4.2602Y-1.8451
X4.2602Y-1.9238
X4.2602Y-2.1599
X4.2602Y-2.1993
X4.2602Y-2.2386
X4.2603Y-1.9828
X4.2603Y-2.0418
X4.2603Y-2.1107
X4.2603Y-2.7702
X4.2603Y-2.8391
X4.2603Y-2.8981
X4.2603Y-3.5674
X4.2603Y-3.6265
X4.2603Y-3.6855
X4.2603Y-4.217
X4.2603Y-4.3056
X4.2603Y-4.3647
X4.2603Y-4.4237
X4.2603Y-4.4828
X4.2996Y-1.8253
X4.2996Y-1.904
X4.2996Y-1.9434
X4.2996Y-2.0123
X4.2996Y-2.0812
X4.2996Y-2.1403
X4.2996Y-2.1796
X4.2996Y-2.219
X4.2996Y-2.6029
X4.2996Y-2.6914
X4.2996Y-2.7308
X4.2996Y-2.7997
X4.2996Y-2.8686
X4.2996Y-2.9277
X4.2996Y-2.967
X4.2996Y-3.0064
X4.2996Y-3.4001
X4.2996Y-3.4887
X4.2996Y-3.5281
X4.2996Y-3.5969
X4.2996Y-3.656
X4.2996Y-3.7249
X4.2996Y-3.7643
X4.2996Y-3.8036
X4.2996Y-4.1973
X4.2996Y-4.2859
X4.2996Y-4.3253
X4.2996Y-4.3942
X4.2996Y-4.4532
X4.2996Y-4.5221
X4.2996Y-4.5615
X4.2996Y-4.6009
X4.339Y-1.845
X4.339Y-2.6225
X4.339Y-3.4198
X4.339Y-4.217
X4.37Y-5.975
X4.37Y-6.04
X4.3784Y-1.8253
X4.3784Y-2.6029
X4.3784Y-3.4001
X4.3784Y-4.1973
X4.41Y-1.69
X4.4177Y-1.845
X4.4177Y-2.6225
X4.4177Y-3.4198
X4.4177Y-4.217
X4.4374Y-2.0812
X4.4374Y-2.3076
X4.4374Y-2.8686
X4.4374Y-3.095
X4.4374Y-3.6658
X4.4374Y-3.8922
X4.4374Y-4.4631
X4.4374Y-4.6796
X4.4453Y-2.03
X4.4453Y-2.8174
X4.4453Y-3.6147
X4.4453Y-4.4119
X4.4571Y-1.8253
X4.4571Y-1.8844
X4.4571Y-1.9631
X4.4571Y-2.6029
X4.4571Y-2.6718
X4.4571Y-2.7505
X4.4571Y-3.4001
X4.4571Y-3.469
X4.4571Y-3.5477
X4.4571Y-4.1973
X4.4571Y-4.2662
X4.4571Y-4.345
X4.4768Y-2.0517
X4.4768Y-2.3076
X4.4768Y-2.8391
X4.4768Y-3.095
X4.4768Y-3.6363
X4.4768Y-3.8922
X4.4768Y-4.4336
X4.4768Y-4.6796
X4.4866Y-1.8548
X4.4866Y-2.6324
X4.4866Y-3.4985
X4.4866Y-4.2367
X4.4965Y-1.9139
X4.4965Y-2.6914
X4.4965Y-4.2958
X4.4965Y-5.1127
X4.5555Y-5.0536
X4.5555Y-5.093
X4.5555Y-5.5655
X4.5654Y-5.6836
X4.5697Y-5.8186
X4.5752Y-4.5123
X4.5851Y-2.1304
X4.5851Y-2.908
X4.5851Y-3.7151
X4.5949Y-4.2072
X4.62Y-5.11
X4.62Y-5.155
X4.6244Y-1.8844
X4.6244Y-3.469
X4.6343Y-2.6619
X4.67Y-5.48
X4.685Y-5.62
X4.69Y-1.925
X4.695Y-5.43
X4.695Y-5.675
X4.713Y-2.8686
X4.713Y-3.6757
X4.75Y-3.51
X4.755Y-5.155
X4.7819Y-4.2466
X4.79Y-4.865
X4.79Y-4.915
X4.795Y-5.16
X4.8016Y-4.7288
X4.8114Y-4.3942
X4.83Y-4.15
X4.8607Y-4.6304
X4.8705Y-4.1284
X4.8705Y-4.404
X4.875Y-3.03
X4.88Y-5.34
X4.8803Y-4.4729
X4.9099Y-4.0891
X4.91Y-2.48
X4.91Y-3.515
X4.9197Y-2.3273
X4.9296Y-3.0851
X4.9296Y-4.8765
X4.9296Y-4.9552
X4.93Y-3.35
X4.9492Y-2.3863
X4.9492Y-3.8529
X4.9508Y-2.5295
X4.9591Y-3.9119
X4.96Y-5.18
X4.96Y-5.285
X4.9689Y-2.3568
X4.9689Y-2.4158
X4.9689Y-3.0851
X4.9689Y-3.7249
X4.9689Y-3.784
X4.9689Y-3.9611
X4.9689Y-4.0202
X4.9689Y-4.1875
X4.9689Y-4.2466
X4.98Y-5.405
X4.9886Y-3.7544
X4.9886Y-3.9907
X4.9886Y-4.217
X4.9902Y-1.9291
X4.9902Y-2.9823
X5.01Y-5.23
X5.028Y-4.4532
X5.028Y-4.6403
X5.0378Y-4.8371
X5.0378Y-5.0635
X5.0492Y-1.8898
X5.05Y-5.285
X5.0576Y-3.0458
X5.0673Y-3.154
X5.0673Y-3.2032
X5.0673Y-3.3115
X5.0772Y-3.2426
X5.0772Y-4.3056
X5.0772Y-5.0635
X5.0969Y-4.8174
X5.115Y-5.385
X5.1166Y-3.4493
X5.12Y-4.19
X5.1362Y-4.8174
X5.1461Y-3.4198
X5.1559Y-4.3942
X5.1756Y-4.5615
X5.18Y-5.5
X5.1855Y-3.282
X5.1856Y-3.1639
X5.1856Y-3.2131
X5.1973Y-4.6993
X5.215Y-4.906
X5.215Y-5.0733
X5.215Y-5.3194
X5.215Y-5.4375
X5.22Y-5.2272
X5.2347Y-4.6993
X5.2445Y-4.9158
X5.2445Y-5.0438
X5.2544Y-5.3194
X5.2607Y-2.1005
X5.27Y-5.27
X5.275Y-1.98
X5.29Y-4.965
X5.2937Y-4.6993
X5.2953Y-2.2343
X5.305Y-5.42
X5.31Y-5.555
X5.3132Y-5.2934
X5.3233Y-3.971
X5.3233Y-4.6895
X5.3233Y-4.8174
X5.3233Y-5.0241
X5.3244Y-3.0658
X5.3429Y-4.1166
X5.3429Y-5.0832
X5.3508Y-5.7958
X5.3528Y-4.6993
X5.3529Y-3.2131
X5.355Y-5.465
X5.3626Y-5.034
X5.3705Y-4.8765
X5.3725Y-3.9316
X5.3725Y-5.2111
X5.3725Y-5.7623
X5.3775Y-5.3213
X5.3941Y-4.1245
X5.402Y-4.906
X5.402Y-5.0832
X5.4217Y-3.971
X5.4217Y-4.3253
X5.4217Y-5.4473
X5.4512Y-5.5162
X5.4532Y-4.2859
X5.455Y-2.085
X5.4571Y-4.908
X5.47Y-5.84
X5.4886Y-4.908
X5.495Y-2.225
X5.5103Y-4.2466
X5.5182Y-5.6442
X5.5201Y-4.908
X5.5398Y-3.841
X5.5398Y-4.2564
X5.5496Y-5.0438
X5.55Y-3.27
X5.55Y-3.31
X5.5516Y-4.908
X5.555Y-2.23
X5.5595Y-5.5359
X5.5595Y-5.654
X5.5693Y-4.2662
X5.5693Y-5.3588
X5.587Y-4.9908
X5.59Y-3.31
X5.5931Y-4.9572
X5.5988Y-4.2564
X5.6048Y-5.6442
X5.6185Y-4.1284
X5.6185Y-4.1777
X5.6185Y-5.4178
X5.62Y-3.27
X5.6284Y-5.2407
X5.6284Y-5.3588
X5.63Y-2.95
X5.635Y-5.19
X5.65Y-2.3
X5.65Y-2.35
X5.65Y-2.4
X5.65Y-2.45
X5.65Y-2.5
X5.65Y-2.55
X5.65Y-2.6
X5.6874Y-5.3588
X5.7Y-2.35
X5.7Y-2.4
X5.7Y-2.5
X5.7Y-2.6
X5.7071Y-4.5418
X5.7268Y-5.5359
X5.7366Y-5.2111
X5.7465Y-5.3588
X5.75Y-2.125
X5.75Y-2.3
X5.75Y-2.45
X5.75Y-2.55
X5.75Y-2.65
X5.76Y-2.39
X5.7662Y-5.4178
X5.7662Y-5.4867
X5.7859Y-4.0792
X5.79Y-3.51
X5.79Y-4.28
X5.8Y-2.35
X5.8Y-2.4
X5.8Y-2.45
X5.8Y-2.5
X5.8Y-2.6
X5.805Y-2.125
X5.8055Y-5.3588
X5.8055Y-5.654
X5.8154Y-4.3647
X5.8154Y-4.6501
X5.8252Y-4.3942
X5.8351Y-4.4532
X5.8351Y-4.5123
X5.8351Y-5.6639
X5.84Y-2.9
X5.84Y-2.94
X5.8449Y-4.6403
X5.85Y-2.3
X5.85Y-2.35
X5.85Y-2.4
X5.85Y-2.5
X5.85Y-2.55
X5.85Y-2.65
X5.8548Y-4.4237
X5.8548Y-4.4828
X5.8744Y-4.6501
X5.88Y-2.9
X5.88Y-2.94
X5.8925Y-3.9985
X5.8981Y-4.8253
X5.9Y-2.35
X5.9Y-2.4
X5.9Y-2.5
X5.9Y-2.6
X5.904Y-4.6501
X5.904Y-6.0891
X5.9177Y-5.7643
X5.9217Y-4.8017
X5.9236Y-3.9316
X5.9236Y-3.971
X5.9335Y-4.6403
X5.9348Y-1.9454
X5.9366Y-2.1339
X5.94Y-2.9
X5.94Y-2.94
X5.9414Y-5.0261
X5.942Y-2.0754
X5.9453Y-4.7781
X5.9465Y-2.0079
X5.949Y-4.4015
X5.95Y-2.3
X5.95Y-2.35
X5.95Y-2.4
X5.95Y-2.55
X5.95Y-2.65
X5.95Y-3.32
X5.963Y-4.2564
X5.963Y-4.6501
X5.9767Y-2.1092
X5.978Y-1.9769
X5.9785Y-2.0385
X5.9827Y-4.7781
X5.9925Y-4.6462
X5.9974Y-1.9467
X6.Y-2.35
X6.Y-2.4
X6.Y-2.5
X6.Y-2.55
X6.Y-2.6
X6.Y-2.65
X6.0055Y-2.0732
X6.0091Y-2.0079
X6.0109Y-2.1357
X6.0122Y-4.1383
X6.02Y-3.19
X6.0221Y-4.654
X6.0221Y-4.9257
X6.0368Y-2.0379
X6.0392Y-1.976
X6.041Y-2.1078
X6.0418Y-4.1186
X6.05Y-5.25
X6.0518Y-3.8674
X6.0575Y-4.9218
X6.0671Y-1.9449
X6.0703Y-2.0075
X6.0713Y-4.0891
X6.0734Y-2.0741
X6.0734Y-2.1375
X6.0811Y-4.8981
X6.0811Y-5.8312
X6.0991Y-2.0372
X6.1Y-5.545
X6.1022Y-1.9787
X6.1022Y-2.1087
X6.1067Y-5.0399
X6.1107Y-4.9355
X6.1126Y-4.9847
X6.13Y-2.32
X6.1369Y-2.007
X6.1373Y-1.944
X6.1391Y-2.0714
X6.14Y-2.46
X6.14Y-3.18
X6.1402Y-4.9257
X6.1432Y-2.1348
X6.15Y-4.8076
X6.1559Y-5.2288
X6.1697Y-4.9355
X6.1796Y-4.7781
X6.1796Y-5.2584
X6.19Y-2.3211
X6.1992Y-4.9257
X6.2Y-2.455
X6.2091Y-4.7485
X6.2386Y-4.719
X6.2386Y-4.9257
X6.25Y-2.32
X6.25Y-2.46
X6.255Y-3.135
X6.29Y-2.79
X6.29Y-2.83
X6.3Y-2.04
X6.3168Y-4.8956
X6.3272Y-4.8371
X6.3311Y-5.2347
X6.34Y-2.89
X6.35Y-2.28
X6.35Y-2.32
X6.38Y-2.7854
X6.3823Y-5.0871
X6.3862Y-4.9355
X6.3862Y-5.1324
X6.3961Y-4.404
X6.3961Y-4.5025
X6.3961Y-4.7092
X6.3961Y-4.8469
X6.4Y-2.23
X6.4Y-2.28
X6.4Y-2.33
X6.415Y-1.845
X6.4256Y-4.4237
X6.4256Y-4.5221
X6.435Y-3.47
X6.4355Y-4.7485
X6.45Y-2.23
X6.45Y-2.28
X6.45Y-2.33
X6.4551Y-4.4434
X6.4551Y-4.5025
X6.5044Y-4.3844
X6.5339Y-4.4434
X6.5437Y-4.8568
X6.5536Y-4.8863
X6.5831Y-5.1029
X6.59Y-1.7817
X6.6618Y-5.1619
X6.6815Y-5.3194
X6.6914Y-4.5123
X6.6914Y-4.6304
X6.6914Y-4.8174
X6.6914Y-5.0143
X6.7307Y-4.9552
X6.7307Y-5.0143
X6.7504Y-4.5221
X6.7603Y-4.9749
X6.7603Y-5.2407
X6.7799Y-4.5615
X6.8Y-3.5124
X6.8488Y-4.6599
X6.8488Y-4.8371
X6.8567Y-5.5123
X6.8685Y-4.9158
X6.8685Y-5.2702
X6.8784Y-5.3489
X6.995Y-5.175
X6.9965Y-4.5615
X7.0063Y-4.7387
X7.0063Y-4.7977
X7.0063Y-4.8568
X7.0063Y-4.9158
X7.0063Y-4.9749
X7.0063Y-5.034
T2
X4.925Y-5.765
X4.925Y-5.8437
X5.025Y-5.765
X5.025Y-5.8437
T3
X5.454Y-6.1068
X5.7682Y-6.1068
X6.3Y-5.591
X6.3498Y-5.491
X6.4Y-5.591
X6.4498Y-5.491
X6.5Y-5.591
X6.5498Y-5.491
X6.6Y-5.591
X6.6498Y-5.491
T4
X3.2829Y-1.9313
X3.2829Y-2.0313
X3.2829Y-2.1313
X3.2829Y-2.2313
X3.2829Y-2.3313
X3.2829Y-2.4313
X3.2829Y-2.5313
X3.2829Y-2.7313
X3.2829Y-2.8313
X3.2829Y-2.9313
X3.2829Y-3.0313
X3.2829Y-3.1313
X3.2829Y-3.2313
X3.2829Y-3.3313
X3.2829Y-3.5313
X3.2829Y-3.6313
X3.2829Y-3.7313
X3.2829Y-3.8313
X3.2829Y-3.9313
X3.2829Y-4.0313
X3.2829Y-4.1313
X3.2829Y-4.3313
X3.2829Y-4.4313
X3.2829Y-4.5313
X3.2829Y-4.6313
X3.2829Y-4.7313
X3.2829Y-4.8313
X3.2829Y-4.9313
X3.2829Y-5.1313
X3.2829Y-5.2313
X3.2829Y-5.3313
X3.2829Y-5.4313
X3.2829Y-5.5313
X3.2829Y-5.6313
X3.2829Y-5.8313
X3.2829Y-5.9313
X3.5288Y-6.161
X3.55Y-5.43
X3.55Y-5.53
X3.605Y-1.555
X3.6288Y-6.161
X3.705Y-1.555
X3.7288Y-6.161
X3.805Y-1.555
X3.8288Y-6.161
X3.905Y-1.555
X4.055Y-1.555
X4.055Y-1.75
X4.155Y-1.555
X4.155Y-1.75
X4.31Y-6.165
X4.41Y-6.165
X4.51Y-6.165
X4.5661Y-2.4311
X4.61Y-6.165
X4.6661Y-2.4311
X5.1548Y-2.1308
X5.748Y-2.9421
X5.748Y-3.0421
X6.214Y-6.0339
X6.3038Y-4.9834
X6.314Y-6.0339
X6.53Y-1.525
X6.63Y-1.525
X6.6356Y-6.0339
X6.7356Y-6.0339
X6.8874Y-1.9639
X6.8874Y-2.0639
X6.8874Y-2.1639
X6.8874Y-2.2639
X6.8874Y-2.3639
X6.8874Y-2.4639
X6.8874Y-2.5639
X6.8874Y-2.6639
X6.8874Y-2.7639
X6.8874Y-2.8639
X6.8874Y-2.9639
X6.8874Y-3.0639
X6.8874Y-3.1639
X6.8874Y-3.2639
X6.8874Y-3.3639
X6.8874Y-3.4639
X6.8874Y-3.5639
X6.8874Y-3.6639
X6.8874Y-3.7639
X6.8874Y-3.8639
X6.8874Y-3.9639
X6.8874Y-4.0639
X6.8874Y-4.1639
X6.8874Y-4.2639
X6.8874Y-4.3639
X6.9874Y-1.9639
X6.9874Y-2.0639
X6.9874Y-2.1639
X6.9874Y-2.2639
X6.9874Y-2.3639
X6.9874Y-2.4639
X6.9874Y-2.5639
X6.9874Y-2.6639
X6.9874Y-2.7639
X6.9874Y-2.8639
X6.9874Y-2.9639
X6.9874Y-3.0639
X6.9874Y-3.1639
X6.9874Y-3.2639
X6.9874Y-3.3639
X6.9874Y-3.4639
X6.9874Y-3.5639
X6.9874Y-3.6639
X6.9874Y-3.7639
X6.9874Y-3.8639
X6.9874Y-3.9639
X6.9874Y-4.0639
X6.9874Y-4.1639
X6.9874Y-4.2639
X6.9874Y-4.3639
T5
X4.61Y-1.53
X4.71Y-1.73
X4.81Y-1.53
X5.105Y-1.53
X5.205Y-1.73
X5.305Y-1.53
X5.695Y-1.53
X5.795Y-1.73
X5.895Y-1.53
X6.185Y-1.53
X6.285Y-1.73
X6.385Y-1.53
T6
X4.8115Y-1.53
X5.1067Y-1.53
X5.8924Y-1.53
X6.1876Y-1.53
T7
X6.1698Y-5.7209
X6.7798Y-5.721
T8
X4.7388Y-5.95
T9
X6.2498Y-5.841
X6.6998Y-5.841
T10
X3.3154Y-1.6088
X3.3154Y-6.1363
X6.9374Y-1.6088
X6.9374Y-6.1363
T0
M30
