G04 (created by PCBNEW (2013-05-18 BZR 4017)-stable) date Fri 14 Aug 2015 10:59:20 BST*
%MOIN*%
G04 Gerber Fmt 3.4, Leading zero omitted, Abs format*
%FSLAX34Y34*%
G01*
G70*
G90*
G04 APERTURE LIST*
%ADD10C,0.00590551*%
%ADD11C,0.0594*%
%ADD12C,0.2169*%
%ADD13R,0.08X0.08*%
%ADD14C,0.08*%
%ADD15C,0.1499*%
%ADD16C,0.12*%
%ADD17C,0.0515*%
%ADD18R,0.0987X0.0987*%
%ADD19C,0.1184*%
%ADD20C,0.1263*%
%ADD21C,0.1066*%
G04 APERTURE END LIST*
G54D10*
G54D11*
X24140Y1870D03*
X27282Y1870D03*
G54D12*
X2754Y1575D03*
G54D13*
X2429Y43625D03*
G54D14*
X2429Y42625D03*
X2429Y41625D03*
X2429Y40625D03*
X2429Y39625D03*
X2429Y38625D03*
X2429Y37625D03*
G54D13*
X2429Y35625D03*
G54D14*
X2429Y34625D03*
X2429Y33625D03*
X2429Y32625D03*
X2429Y31625D03*
X2429Y30625D03*
X2429Y29625D03*
G54D13*
X2429Y27625D03*
G54D14*
X2429Y26625D03*
X2429Y25625D03*
X2429Y24625D03*
X2429Y23625D03*
X2429Y22625D03*
X2429Y21625D03*
G54D13*
X2429Y19625D03*
G54D14*
X2429Y18625D03*
X2429Y17625D03*
X2429Y16625D03*
X2429Y15625D03*
X2429Y14625D03*
X2429Y13625D03*
G54D13*
X35911Y46929D03*
G54D14*
X34911Y46929D03*
G54D13*
X38474Y43299D03*
G54D14*
X39474Y43299D03*
X38474Y38299D03*
X39474Y42299D03*
X38474Y37299D03*
X39474Y41299D03*
X38474Y36299D03*
X39474Y40299D03*
X38474Y35299D03*
X39474Y39299D03*
X38474Y34299D03*
X39474Y38299D03*
X38474Y33299D03*
X39474Y37299D03*
X38474Y32299D03*
X39474Y36299D03*
X38474Y31299D03*
X39474Y35299D03*
X38474Y30299D03*
X39474Y34299D03*
X38474Y29299D03*
X39474Y33299D03*
X38474Y28299D03*
X39474Y32299D03*
X39474Y31299D03*
X38474Y27299D03*
X39474Y30299D03*
X39474Y28299D03*
X39474Y27299D03*
X39474Y26299D03*
X39474Y25299D03*
X38474Y26299D03*
X38474Y25299D03*
X38474Y42299D03*
X38474Y41299D03*
X38474Y40299D03*
X38474Y39299D03*
X38474Y24299D03*
X39474Y24299D03*
X39474Y29299D03*
X38474Y23299D03*
X39474Y23299D03*
X38474Y22299D03*
X39474Y22299D03*
X38474Y21299D03*
X39474Y21299D03*
X38474Y20299D03*
X39474Y20299D03*
X38474Y19299D03*
X39474Y19299D03*
G54D15*
X32098Y4528D03*
X36598Y4528D03*
G54D14*
X36098Y8028D03*
X35600Y7028D03*
X35098Y8028D03*
X34600Y7028D03*
X34098Y8028D03*
X33600Y7028D03*
X33098Y8028D03*
G54D16*
X31298Y5729D03*
X37398Y5728D03*
G54D14*
X35956Y2599D03*
X32740Y2599D03*
X36956Y2599D03*
X31740Y2599D03*
G54D13*
X32600Y7028D03*
G54D17*
X16730Y26181D03*
X13700Y46038D03*
X16730Y34252D03*
X17900Y21438D03*
G54D13*
X32696Y41944D03*
G54D14*
X32696Y40944D03*
X32638Y13104D03*
X21148Y41630D03*
G54D13*
X22500Y37988D03*
G54D14*
X23500Y37988D03*
G54D13*
X4888Y1328D03*
G54D14*
X5888Y1328D03*
X6888Y1328D03*
X7888Y1328D03*
G54D12*
X38974Y46850D03*
X38974Y1575D03*
X2754Y46850D03*
G54D13*
X2429Y11625D03*
G54D14*
X2429Y10625D03*
X2429Y9625D03*
X2429Y8625D03*
G54D13*
X2429Y7625D03*
G54D14*
X2429Y6625D03*
G54D13*
X2429Y4625D03*
G54D14*
X2429Y3625D03*
G54D18*
X31476Y47638D03*
G54D19*
X28524Y47638D03*
G54D18*
X17715Y47638D03*
G54D19*
X20667Y47638D03*
G54D13*
X5650Y47388D03*
G54D14*
X6650Y47388D03*
X7650Y47388D03*
X8650Y47388D03*
G54D13*
X10150Y47388D03*
G54D14*
X11150Y47388D03*
G54D13*
X10150Y45438D03*
G54D14*
X11150Y45438D03*
X19850Y5288D03*
X18850Y5288D03*
X18850Y4501D03*
X19850Y4501D03*
G54D20*
X21712Y3438D03*
X16988Y3438D03*
G54D13*
X5100Y8638D03*
G54D14*
X5100Y7638D03*
G54D13*
X12700Y1288D03*
G54D14*
X13700Y1288D03*
X14700Y1288D03*
X15700Y1288D03*
G54D17*
X32150Y31588D03*
X30950Y31588D03*
X29750Y31588D03*
G54D21*
X32450Y45638D03*
X33450Y47638D03*
X31450Y47638D03*
X27550Y45638D03*
X28550Y47638D03*
X26550Y47638D03*
X16700Y45638D03*
X17700Y47638D03*
X15700Y47638D03*
X21650Y45638D03*
X22650Y47638D03*
X20650Y47638D03*
M02*
