G04 This is an RS-274x file exported by *
G04 gerbv version 2.6.0 *
G04 More information is available about gerbv at *
G04 http://gerbv.gpleda.org/ *
G04 --End of header info--*
%MOIN*%
%FSLAX34Y34*%
%IPPOS*%
G04 --Define apertures--*
%ADD10C,0.0059*%
%ADD11C,0.0394*%
%ADD12R,0.0472X0.0866*%
%ADD13R,0.0472X0.0551*%
%ADD14R,0.0630X0.0551*%
%ADD15R,0.0276X0.0630*%
%ADD16C,0.1969*%
%ADD17R,0.0579X0.0165*%
%ADD18R,0.1181X0.1701*%
%ADD19R,0.0394X0.0236*%
%ADD20R,0.0236X0.0394*%
%ADD21R,0.0800X0.1440*%
%ADD22R,0.0800X0.0400*%
%ADD23R,0.1417X0.0630*%
%ADD24R,0.0374X0.0394*%
%ADD25R,0.0394X0.0374*%
%ADD26R,0.0453X0.0709*%
%ADD27R,0.0453X0.0571*%
%ADD28R,0.0571X0.0453*%
%ADD29R,0.0906X0.0512*%
%ADD30R,0.2559X0.2323*%
%ADD31R,0.0600X0.0600*%
%ADD32C,0.0600*%
%ADD33R,0.1142X0.0591*%
%ADD34R,0.0591X0.1142*%
%ADD35R,0.0787X0.0433*%
%ADD36R,0.0315X0.0433*%
%ADD37R,0.0500X0.0250*%
%ADD38R,0.0098X0.0236*%
%ADD39R,0.0236X0.0098*%
%ADD40R,0.1299X0.1299*%
%ADD41R,0.1000X0.1051*%
%ADD42R,0.0500X0.0300*%
%ADD43R,0.1051X0.1000*%
%ADD44R,0.0300X0.0500*%
%ADD45C,0.1299*%
%ADD46C,0.1000*%
%ADD47R,0.0472X0.0709*%
%ADD48C,0.0315*%
%ADD49R,0.0250X0.0500*%
%ADD50R,0.0630X0.1417*%
%ADD51R,0.0787X0.0787*%
%ADD52C,0.0984*%
%ADD53R,0.0433X0.0787*%
%ADD54R,0.0433X0.0315*%
%ADD55C,0.1063*%
%ADD56C,0.0866*%
%ADD57R,0.0900X0.0450*%
%ADD58R,0.3937X0.4252*%
%ADD59R,0.1339X0.1732*%
%ADD60R,0.1299X0.0984*%
%ADD61C,0.0236*%
%ADD62C,0.0100*%
%ADD63C,0.0300*%
%ADD64C,0.0200*%
%ADD65C,0.0150*%
%ADD66C,0.0400*%
%ADD67C,0.1575*%
%ADD68C,0.0800*%
%ADD69C,0.0600*%
%ADD70C,0.0700*%
G04 --Start main section--*
G54D23*
G01X0030783Y0034438D03*
G01X0028617Y0034438D03*
G54D41*
G01X0025900Y0035138D03*
G54D42*
G01X0025900Y0034212D03*
G54D43*
G01X0032600Y0042538D03*
G54D44*
G01X0033526Y0042538D03*
G54D31*
G01X0027100Y0035238D03*
G54D32*
G01X0027100Y0034238D03*
G54D23*
G01X0024683Y0040638D03*
G54D28*
G01X0032100Y0035692D03*
G01X0032100Y0034984D03*
G54D57*
G01X0032100Y0037719D03*
G54D58*
G01X0027850Y0038388D03*
G54D57*
G01X0032100Y0039057D03*
G01X0032100Y0037049D03*
G01X0032100Y0038388D03*
G01X0032100Y0039727D03*
G54D59*
G01X0035600Y0037530D03*
G01X0035600Y0041546D03*
G54D50*
G01X0035500Y0042955D03*
G01X0035500Y0045121D03*
G54D60*
G01X0034300Y0036576D03*
G01X0034300Y0033899D03*
G54D61*
G01X0032600Y0042538D03*
G01X0028200Y0034438D03*
G01X0028200Y0035138D03*
G01X0029000Y0035138D03*
G01X0028617Y0034438D03*
G01X0029100Y0034438D03*
G01X0033600Y0040638D03*
G01X0034100Y0040638D03*
G01X0034100Y0040138D03*
G01X0034100Y0039638D03*
G01X0033600Y0039638D03*
G01X0033600Y0040138D03*
G01X0033100Y0040138D03*
G01X0033100Y0039738D03*
G01X0033200Y0035838D03*
G01X0032700Y0036438D03*
G01X0032700Y0035838D03*
G01X0032700Y0034938D03*
G01X0032700Y0035338D03*
G01X0033200Y0034938D03*
G01X0026100Y0038438D03*
G01X0026100Y0038938D03*
G01X0026600Y0038938D03*
G01X0027200Y0039038D03*
G01X0027600Y0038938D03*
G01X0028100Y0038938D03*
G01X0028600Y0038938D03*
G01X0029100Y0038938D03*
G01X0029600Y0038938D03*
G01X0029600Y0039438D03*
G01X0029100Y0039438D03*
G01X0028600Y0039438D03*
G01X0028100Y0039438D03*
G01X0027600Y0039438D03*
G01X0026600Y0039438D03*
G01X0026100Y0039438D03*
G01X0026100Y0039938D03*
G01X0027100Y0039938D03*
G01X0028100Y0039938D03*
G01X0029100Y0039938D03*
G01X0032100Y0034984D03*
G01X0031000Y0038338D03*
G01X0031600Y0038388D03*
G01X0032100Y0038338D03*
G01X0035500Y0045121D03*
G01X0030900Y0039738D03*
G01X0031500Y0039727D03*
G01X0032100Y0039738D03*
G01X0027100Y0038438D03*
G01X0026100Y0037938D03*
G01X0026600Y0037938D03*
G01X0027100Y0036438D03*
G01X0028100Y0036438D03*
G01X0029100Y0036438D03*
G01X0029600Y0036438D03*
G01X0029600Y0036938D03*
G01X0028600Y0036938D03*
G01X0027600Y0036938D03*
G01X0026600Y0036938D03*
G01X0026100Y0036938D03*
G01X0026100Y0037438D03*
G01X0027100Y0037438D03*
G01X0028100Y0037438D03*
G01X0029100Y0037438D03*
G01X0029600Y0037438D03*
G01X0029600Y0037938D03*
G01X0028600Y0037938D03*
G01X0028100Y0037938D03*
G01X0027600Y0037938D03*
G01X0027600Y0038438D03*
G01X0024550Y0040688D03*
G01X0025150Y0040638D03*
G01X0025900Y0033438D03*
G01X0033750Y0044488D03*
G54D65*
G01X0029000Y0035138D02*
G01X0029000Y0034538D01*
G01X0028200Y0034438D02*
G01X0028200Y0035138D01*
G01X0029000Y0034538D02*
G01X0029100Y0034438D01*
G54D62*
G01X0034100Y0040638D02*
G01X0033600Y0040638D01*
G01X0034100Y0039638D02*
G01X0034100Y0040138D01*
G01X0033600Y0040138D02*
G01X0033600Y0039638D01*
G01X0033100Y0039738D02*
G01X0033100Y0040138D01*
G01X0032700Y0035338D02*
G01X0032700Y0035838D01*
G01X0033200Y0035938D02*
G01X0033200Y0035838D01*
G01X0032700Y0036438D02*
G01X0033200Y0035938D01*
G01X0034300Y0033899D02*
G01X0034238Y0033899D01*
G01X0032654Y0034984D02*
G01X0032100Y0034984D01*
G01X0032700Y0034938D02*
G01X0032654Y0034984D01*
G01X0034238Y0033899D02*
G01X0033200Y0034938D01*
G01X0026100Y0038438D02*
G01X0026100Y0038938D01*
G01X0026600Y0038938D02*
G01X0026700Y0039038D01*
G01X0026700Y0039038D02*
G01X0027200Y0039038D01*
G01X0027600Y0038938D02*
G01X0028100Y0038938D01*
G01X0028600Y0038938D02*
G01X0029100Y0038938D01*
G01X0029600Y0038938D02*
G01X0029600Y0039438D01*
G01X0029100Y0039438D02*
G01X0028600Y0039438D01*
G01X0028100Y0039438D02*
G01X0027600Y0039438D01*
G01X0026600Y0039438D02*
G01X0026100Y0039438D01*
G01X0026100Y0039938D02*
G01X0027100Y0039938D01*
G01X0028100Y0039938D02*
G01X0029100Y0039938D01*
G01X0032050Y0038388D02*
G01X0031600Y0038388D01*
G01X0032100Y0038338D02*
G01X0032050Y0038388D01*
G01X0031000Y0038338D02*
G01X0031000Y0038388D01*
G01X0031000Y0038388D02*
G01X0031000Y0038338D01*
G01X0031000Y0038338D02*
G01X0031000Y0038388D01*
G01X0032089Y0039727D02*
G01X0031500Y0039727D01*
G01X0032100Y0039738D02*
G01X0032089Y0039727D01*
G01X0030900Y0039738D02*
G01X0030900Y0039727D01*
G01X0030900Y0039727D02*
G01X0030900Y0039738D01*
G01X0030900Y0039738D02*
G01X0030900Y0039727D01*
G54D69*
G01X0032100Y0038388D02*
G01X0031000Y0038388D01*
G01X0031000Y0038388D02*
G01X0027850Y0038388D01*
G01X0032100Y0039727D02*
G01X0030900Y0039727D01*
G54D62*
G01X0027100Y0038438D02*
G01X0026600Y0037938D01*
G01X0026600Y0037938D02*
G01X0026100Y0037938D01*
G01X0026600Y0037938D02*
G01X0027600Y0037938D01*
G01X0026100Y0036438D02*
G01X0027850Y0038388D01*
G01X0027100Y0036438D02*
G01X0026100Y0036438D01*
G01X0029100Y0036438D02*
G01X0028100Y0036438D01*
G01X0029600Y0036938D02*
G01X0029600Y0036438D01*
G01X0027600Y0036938D02*
G01X0028600Y0036938D01*
G01X0026100Y0036938D02*
G01X0026600Y0036938D01*
G01X0027100Y0037438D02*
G01X0026100Y0037438D01*
G01X0029100Y0037438D02*
G01X0028100Y0037438D01*
G01X0029600Y0037938D02*
G01X0029600Y0037438D01*
G01X0028100Y0037938D02*
G01X0028600Y0037938D01*
G01X0027850Y0038388D02*
G01X0027650Y0038388D01*
G01X0027650Y0038388D02*
G01X0027600Y0038438D01*
G54D68*
G01X0024683Y0040638D02*
G01X0025600Y0040638D01*
G01X0025600Y0040638D02*
G01X0027850Y0038388D01*
G54D62*
G01X0024683Y0040638D02*
G01X0025150Y0040638D01*
G01X0025150Y0040638D02*
G01X0024550Y0040688D01*
G01X0024683Y0040638D02*
G01X0024683Y0040771D01*
G01X0024683Y0040771D02*
G01X0025150Y0040638D01*
G54D65*
G01X0031600Y0040638D02*
G01X0031600Y0042838D01*
G01X0033526Y0043212D02*
G01X0033526Y0042538D01*
G01X0033200Y0043538D02*
G01X0033526Y0043212D01*
G01X0032300Y0043538D02*
G01X0033200Y0043538D01*
G01X0031600Y0042838D02*
G01X0032300Y0043538D01*
G01X0030381Y0039057D02*
G01X0032100Y0039057D01*
G01X0030200Y0039238D02*
G01X0030381Y0039057D01*
G01X0030200Y0040338D02*
G01X0030200Y0039238D01*
G01X0030500Y0040638D02*
G01X0030200Y0040338D01*
G01X0031600Y0040638D02*
G01X0030500Y0040638D01*
G54D68*
G01X0034000Y0042338D02*
G01X0034808Y0042338D01*
G54D69*
G01X0033800Y0042538D02*
G01X0034000Y0042338D01*
G01X0033526Y0042538D02*
G01X0033800Y0042538D01*
G54D68*
G01X0034808Y0042338D02*
G01X0035600Y0041546D01*
G01X0035500Y0042955D02*
G01X0035500Y0041646D01*
G01X0035500Y0041646D02*
G01X0035600Y0041546D01*
G01X0027100Y0035238D02*
G01X0026000Y0035238D01*
G01X0026000Y0035238D02*
G01X0025900Y0035138D01*
G01X0032100Y0035692D02*
G01X0031254Y0035692D01*
G01X0031254Y0035692D02*
G01X0030783Y0035221D01*
G01X0030783Y0035221D02*
G01X0030783Y0034438D01*
G01X0027100Y0034238D02*
G01X0027100Y0033838D01*
G01X0029883Y0033538D02*
G01X0030783Y0034438D01*
G01X0027400Y0033538D02*
G01X0029883Y0033538D01*
G01X0027100Y0033838D02*
G01X0027400Y0033538D01*
G54D69*
G01X0032100Y0037049D02*
G01X0032100Y0035692D01*
G54D67*
G01X0033619Y0037719D02*
G01X0033619Y0037257D01*
G01X0033619Y0037257D02*
G01X0034300Y0036576D01*
G01X0033619Y0037719D02*
G01X0035411Y0037719D01*
G01X0035411Y0037719D02*
G01X0035600Y0037530D01*
G54D69*
G01X0032100Y0037719D02*
G01X0033619Y0037719D01*
G54D67*
G01X0035600Y0037530D02*
G01X0035253Y0037530D01*
G01X0035253Y0037530D02*
G01X0034300Y0036576D01*
G54D69*
G01X0025900Y0034212D02*
G01X0025900Y0033438D01*
G54D10*
G36*
G01X0036824Y0034127D02*
G01X0035099Y0032212D01*
G01X0035099Y0033377D01*
G01X0035099Y0034421D01*
G01X0035076Y0034476D01*
G01X0035034Y0034518D01*
G01X0034979Y0034541D01*
G01X0034919Y0034541D01*
G01X0034387Y0034541D01*
G01X0034350Y0034504D01*
G01X0034350Y0033949D01*
G01X0035062Y0033949D01*
G01X0035099Y0033986D01*
G01X0035099Y0034421D01*
G01X0035099Y0033377D01*
G01X0035099Y0033811D01*
G01X0035062Y0033849D01*
G01X0034350Y0033849D01*
G01X0034350Y0033294D01*
G01X0034387Y0033257D01*
G01X0034919Y0033257D01*
G01X0034979Y0033257D01*
G01X0035034Y0033280D01*
G01X0035076Y0033322D01*
G01X0035099Y0033377D01*
G01X0035099Y0032212D01*
G01X0035077Y0032188D01*
G01X0033650Y0032188D01*
G01X0033650Y0033257D01*
G01X0033680Y0033257D01*
G01X0034212Y0033257D01*
G01X0034250Y0033294D01*
G01X0034250Y0033849D01*
G01X0034242Y0033849D01*
G01X0034242Y0033949D01*
G01X0034250Y0033949D01*
G01X0034250Y0034504D01*
G01X0034212Y0034541D01*
G01X0033680Y0034541D01*
G01X0033620Y0034541D01*
G01X0033565Y0034518D01*
G01X0033523Y0034476D01*
G01X0033500Y0034421D01*
G01X0033500Y0034187D01*
G01X0033254Y0034186D01*
G01X0033212Y0034250D01*
G01X0033114Y0034315D01*
G01X0033000Y0034338D01*
G01X0032885Y0034315D01*
G01X0032787Y0034250D01*
G01X0032744Y0034184D01*
G01X0032535Y0034184D01*
G01X0032535Y0034727D01*
G01X0032535Y0034896D01*
G01X0032498Y0034934D01*
G01X0032150Y0034934D01*
G01X0032150Y0034645D01*
G01X0032187Y0034607D01*
G01X0032355Y0034607D01*
G01X0032415Y0034607D01*
G01X0032470Y0034630D01*
G01X0032512Y0034672D01*
G01X0032535Y0034727D01*
G01X0032535Y0034184D01*
G01X0032050Y0034182D01*
G01X0032050Y0034645D01*
G01X0032050Y0034934D01*
G01X0031702Y0034934D01*
G01X0031664Y0034896D01*
G01X0031664Y0034727D01*
G01X0031687Y0034672D01*
G01X0031729Y0034630D01*
G01X0031784Y0034607D01*
G01X0031844Y0034607D01*
G01X0032012Y0034607D01*
G01X0032050Y0034645D01*
G01X0032050Y0034182D01*
G01X0031641Y0034180D01*
G01X0031641Y0034782D01*
G01X0031618Y0034837D01*
G01X0031576Y0034880D01*
G01X0031521Y0034902D01*
G01X0031461Y0034903D01*
G01X0031333Y0034903D01*
G01X0031333Y0034993D01*
G01X0031481Y0035142D01*
G01X0031664Y0035142D01*
G01X0031664Y0035071D01*
G01X0031702Y0035034D01*
G01X0032050Y0035034D01*
G01X0032050Y0035041D01*
G01X0032150Y0035041D01*
G01X0032150Y0035034D01*
G01X0032498Y0035034D01*
G01X0032535Y0035071D01*
G01X0032535Y0035240D01*
G01X0032512Y0035295D01*
G01X0032495Y0035312D01*
G01X0032608Y0035481D01*
G01X0032650Y0035692D01*
G01X0032608Y0035902D01*
G01X0032550Y0035989D01*
G01X0032550Y0036673D01*
G01X0032579Y0036673D01*
G01X0032634Y0036696D01*
G01X0032677Y0036738D01*
G01X0032699Y0036794D01*
G01X0032700Y0036853D01*
G01X0032700Y0037164D01*
G01X0032752Y0036898D01*
G01X0032956Y0036594D01*
G01X0033503Y0036047D01*
G01X0033523Y0035999D01*
G01X0033565Y0035957D01*
G01X0033613Y0035937D01*
G01X0033637Y0035913D01*
G01X0033637Y0035913D01*
G01X0033840Y0035777D01*
G01X0033941Y0035710D01*
G01X0033941Y0035710D01*
G01X0034299Y0035639D01*
G01X0034300Y0035639D01*
G01X0034658Y0035710D01*
G01X0034658Y0035710D01*
G01X0034962Y0035913D01*
G01X0034986Y0035937D01*
G01X0035034Y0035957D01*
G01X0035076Y0035999D01*
G01X0035096Y0036047D01*
G01X0035563Y0036513D01*
G01X0036299Y0036513D01*
G01X0036354Y0036536D01*
G01X0036396Y0036578D01*
G01X0036419Y0036634D01*
G01X0036419Y0036693D01*
G01X0036419Y0037101D01*
G01X0036466Y0037171D01*
G01X0036537Y0037530D01*
G01X0036537Y0037530D01*
G01X0036477Y0037829D01*
G01X0036466Y0037888D01*
G01X0036466Y0037888D01*
G01X0036419Y0037958D01*
G01X0036419Y0037958D01*
G01X0036419Y0038425D01*
G01X0036396Y0038480D01*
G01X0036354Y0038523D01*
G01X0036299Y0038545D01*
G01X0036239Y0038546D01*
G01X0035828Y0038546D01*
G01X0035769Y0038585D01*
G01X0035411Y0038656D01*
G01X0033619Y0038656D01*
G01X0033260Y0038585D01*
G01X0032956Y0038381D01*
G01X0032813Y0038169D01*
G01X0032700Y0038169D01*
G01X0032700Y0038300D01*
G01X0032662Y0038338D01*
G01X0032150Y0038338D01*
G01X0032150Y0038330D01*
G01X0032050Y0038330D01*
G01X0032050Y0038338D01*
G01X0031537Y0038338D01*
G01X0031500Y0038300D01*
G01X0031499Y0038133D01*
G01X0031522Y0038078D01*
G01X0031547Y0038053D01*
G01X0031522Y0038029D01*
G01X0031500Y0037973D01*
G01X0031499Y0037914D01*
G01X0031499Y0037464D01*
G01X0031522Y0037409D01*
G01X0031547Y0037383D01*
G01X0031522Y0037359D01*
G01X0031500Y0037303D01*
G01X0031499Y0037244D01*
G01X0031499Y0036794D01*
G01X0031522Y0036739D01*
G01X0031564Y0036696D01*
G01X0031620Y0036674D01*
G01X0031650Y0036674D01*
G01X0031650Y0036242D01*
G01X0031254Y0036242D01*
G01X0031043Y0036200D01*
G01X0030865Y0036080D01*
G01X0030394Y0035609D01*
G01X0030274Y0035431D01*
G01X0030233Y0035221D01*
G01X0030233Y0034903D01*
G01X0030044Y0034903D01*
G01X0029989Y0034880D01*
G01X0029968Y0034859D01*
G01X0029968Y0036232D01*
G01X0029968Y0038300D01*
G01X0029931Y0038338D01*
G01X0027900Y0038338D01*
G01X0027900Y0036149D01*
G01X0027937Y0036112D01*
G01X0029788Y0036111D01*
G01X0029848Y0036112D01*
G01X0029903Y0036134D01*
G01X0029945Y0036177D01*
G01X0029968Y0036232D01*
G01X0029968Y0034859D01*
G01X0029947Y0034838D01*
G01X0029924Y0034782D01*
G01X0029924Y0034723D01*
G01X0029924Y0034357D01*
G01X0029741Y0034174D01*
G01X0029475Y0034173D01*
G01X0029475Y0034723D01*
G01X0029475Y0034782D01*
G01X0029452Y0034838D01*
G01X0029410Y0034880D01*
G01X0029355Y0034903D01*
G01X0028704Y0034903D01*
G01X0028667Y0034865D01*
G01X0028667Y0034488D01*
G01X0029438Y0034488D01*
G01X0029475Y0034525D01*
G01X0029475Y0034723D01*
G01X0029475Y0034173D01*
G01X0029475Y0034173D01*
G01X0029475Y0034350D01*
G01X0029438Y0034388D01*
G01X0028667Y0034388D01*
G01X0028667Y0034380D01*
G01X0028567Y0034380D01*
G01X0028567Y0034388D01*
G01X0028567Y0034488D01*
G01X0028567Y0034865D01*
G01X0028529Y0034903D01*
G01X0027878Y0034903D01*
G01X0027823Y0034880D01*
G01X0027800Y0034856D01*
G01X0027800Y0036149D01*
G01X0027800Y0038338D01*
G01X0025769Y0038338D01*
G01X0025731Y0038300D01*
G01X0025731Y0036232D01*
G01X0025754Y0036177D01*
G01X0025796Y0036134D01*
G01X0025851Y0036112D01*
G01X0025911Y0036111D01*
G01X0027762Y0036112D01*
G01X0027800Y0036149D01*
G01X0027800Y0034856D01*
G01X0027781Y0034838D01*
G01X0027758Y0034782D01*
G01X0027758Y0034723D01*
G01X0027758Y0034525D01*
G01X0027796Y0034488D01*
G01X0028567Y0034488D01*
G01X0028567Y0034388D01*
G01X0027796Y0034388D01*
G01X0027758Y0034350D01*
G01X0027758Y0034166D01*
G01X0027650Y0034166D01*
G01X0027650Y0034238D01*
G01X0027608Y0034448D01*
G01X0027488Y0034626D01*
G01X0027322Y0034738D01*
G01X0027397Y0034787D01*
G01X0027429Y0034787D01*
G01X0027484Y0034810D01*
G01X0027527Y0034852D01*
G01X0027549Y0034908D01*
G01X0027550Y0034940D01*
G01X0027608Y0035027D01*
G01X0027650Y0035238D01*
G01X0027608Y0035448D01*
G01X0027550Y0035535D01*
G01X0027550Y0035567D01*
G01X0027527Y0035622D01*
G01X0027485Y0035665D01*
G01X0027429Y0035687D01*
G01X0027397Y0035688D01*
G01X0027310Y0035746D01*
G01X0027100Y0035788D01*
G01X0026487Y0035788D01*
G01X0026485Y0035790D01*
G01X0026429Y0035813D01*
G01X0026370Y0035813D01*
G01X0025370Y0035813D01*
G01X0025345Y0035803D01*
G01X0025345Y0040172D01*
G01X0025421Y0040172D01*
G01X0025476Y0040195D01*
G01X0025518Y0040237D01*
G01X0025541Y0040293D01*
G01X0025541Y0040327D01*
G01X0025731Y0040328D01*
G01X0025731Y0038475D01*
G01X0025769Y0038438D01*
G01X0027800Y0038438D01*
G01X0027800Y0038445D01*
G01X0027900Y0038445D01*
G01X0027900Y0038438D01*
G01X0029931Y0038438D01*
G01X0029968Y0038475D01*
G01X0029968Y0040367D01*
G01X0029980Y0040367D01*
G01X0029974Y0040338D01*
G01X0029975Y0040337D01*
G01X0029975Y0039238D01*
G01X0029974Y0039238D01*
G01X0029989Y0039166D01*
G01X0029992Y0039151D01*
G01X0030040Y0039078D01*
G01X0030221Y0038897D01*
G01X0030221Y0038897D01*
G01X0030294Y0038849D01*
G01X0030381Y0038832D01*
G01X0031499Y0038832D01*
G01X0031499Y0038802D01*
G01X0031522Y0038747D01*
G01X0031547Y0038722D01*
G01X0031522Y0038697D01*
G01X0031499Y0038642D01*
G01X0031500Y0038475D01*
G01X0031537Y0038438D01*
G01X0032050Y0038438D01*
G01X0032050Y0038445D01*
G01X0032150Y0038445D01*
G01X0032150Y0038438D01*
G01X0032662Y0038438D01*
G01X0032700Y0038475D01*
G01X0032700Y0038642D01*
G01X0032677Y0038697D01*
G01X0032652Y0038722D01*
G01X0032677Y0038746D01*
G01X0032699Y0038802D01*
G01X0032700Y0038861D01*
G01X0032700Y0039311D01*
G01X0032677Y0039366D01*
G01X0032652Y0039392D01*
G01X0032677Y0039417D01*
G01X0032700Y0039472D01*
G01X0032700Y0039981D01*
G01X0032677Y0040036D01*
G01X0032635Y0040079D01*
G01X0032579Y0040101D01*
G01X0032520Y0040102D01*
G01X0032187Y0040102D01*
G01X0032150Y0040064D01*
G01X0032150Y0039777D01*
G01X0032662Y0039777D01*
G01X0032700Y0039814D01*
G01X0032700Y0039981D01*
G01X0032700Y0039472D01*
G01X0032700Y0039639D01*
G01X0032662Y0039677D01*
G01X0032150Y0039677D01*
G01X0032150Y0039669D01*
G01X0032050Y0039669D01*
G01X0032050Y0039677D01*
G01X0032050Y0039777D01*
G01X0032050Y0040064D01*
G01X0032012Y0040102D01*
G01X0031679Y0040102D01*
G01X0031620Y0040101D01*
G01X0031564Y0040079D01*
G01X0031522Y0040036D01*
G01X0031499Y0039981D01*
G01X0031500Y0039814D01*
G01X0031537Y0039777D01*
G01X0032050Y0039777D01*
G01X0032050Y0039677D01*
G01X0031537Y0039677D01*
G01X0031500Y0039639D01*
G01X0031499Y0039472D01*
G01X0031522Y0039417D01*
G01X0031547Y0039391D01*
G01X0031522Y0039367D01*
G01X0031500Y0039311D01*
G01X0031499Y0039282D01*
G01X0030474Y0039282D01*
G01X0030425Y0039331D01*
G01X0030425Y0040244D01*
G01X0030552Y0040372D01*
G01X0032340Y0040388D01*
G01X0032550Y0041333D01*
G01X0032523Y0041887D01*
G01X0033155Y0041887D01*
G01X0033210Y0041910D01*
G01X0033252Y0041952D01*
G01X0033275Y0042008D01*
G01X0033275Y0042067D01*
G01X0033275Y0042174D01*
G01X0033280Y0042170D01*
G01X0033290Y0042160D01*
G01X0033304Y0042155D01*
G01X0033353Y0042122D01*
G01X0033517Y0042089D01*
G01X0033611Y0041949D01*
G01X0033789Y0041829D01*
G01X0034000Y0041788D01*
G01X0034580Y0041788D01*
G01X0034780Y0041587D01*
G01X0034780Y0040650D01*
G01X0034803Y0040595D01*
G01X0034845Y0040552D01*
G01X0034900Y0040530D01*
G01X0034960Y0040529D01*
G01X0036299Y0040529D01*
G01X0036354Y0040552D01*
G01X0036396Y0040594D01*
G01X0036419Y0040650D01*
G01X0036419Y0040709D01*
G01X0036419Y0042441D01*
G01X0036396Y0042496D01*
G01X0036354Y0042539D01*
G01X0036299Y0042561D01*
G01X0036239Y0042562D01*
G01X0036050Y0042562D01*
G01X0036050Y0042955D01*
G01X0036008Y0043165D01*
G01X0035965Y0043229D01*
G01X0035965Y0043693D01*
G01X0035965Y0044382D01*
G01X0035965Y0045859D01*
G01X0035942Y0045914D01*
G01X0035900Y0045956D01*
G01X0035844Y0045979D01*
G01X0035785Y0045979D01*
G01X0035587Y0045979D01*
G01X0035550Y0045942D01*
G01X0035550Y0045171D01*
G01X0035927Y0045171D01*
G01X0035965Y0045208D01*
G01X0035965Y0045859D01*
G01X0035965Y0044382D01*
G01X0035965Y0045033D01*
G01X0035927Y0045071D01*
G01X0035550Y0045071D01*
G01X0035550Y0044300D01*
G01X0035587Y0044262D01*
G01X0035785Y0044262D01*
G01X0035844Y0044262D01*
G01X0035900Y0044285D01*
G01X0035942Y0044327D01*
G01X0035965Y0044382D01*
G01X0035965Y0043693D01*
G01X0035942Y0043748D01*
G01X0035900Y0043790D01*
G01X0035844Y0043813D01*
G01X0035785Y0043813D01*
G01X0035450Y0043813D01*
G01X0035450Y0044300D01*
G01X0035450Y0045071D01*
G01X0035450Y0045171D01*
G01X0035450Y0045942D01*
G01X0035412Y0045979D01*
G01X0035214Y0045979D01*
G01X0035155Y0045979D01*
G01X0035099Y0045956D01*
G01X0035057Y0045914D01*
G01X0035034Y0045859D01*
G01X0035035Y0045208D01*
G01X0035072Y0045171D01*
G01X0035450Y0045171D01*
G01X0035450Y0045071D01*
G01X0035072Y0045071D01*
G01X0035035Y0045033D01*
G01X0035034Y0044382D01*
G01X0035057Y0044327D01*
G01X0035099Y0044285D01*
G01X0035155Y0044262D01*
G01X0035214Y0044262D01*
G01X0035412Y0044262D01*
G01X0035450Y0044300D01*
G01X0035450Y0043813D01*
G01X0035155Y0043813D01*
G01X0035100Y0043790D01*
G01X0035057Y0043748D01*
G01X0035035Y0043693D01*
G01X0035034Y0043633D01*
G01X0035034Y0043229D01*
G01X0034991Y0043165D01*
G01X0034950Y0042955D01*
G01X0034950Y0042859D01*
G01X0034808Y0042888D01*
G01X0034070Y0042888D01*
G01X0034018Y0042923D01*
G01X0034018Y0044541D01*
G01X0033977Y0044639D01*
G01X0033902Y0044715D01*
G01X0033803Y0044755D01*
G01X0033696Y0044756D01*
G01X0033598Y0044715D01*
G01X0033522Y0044640D01*
G01X0033482Y0044541D01*
G01X0033481Y0044434D01*
G01X0033522Y0044336D01*
G01X0033597Y0044260D01*
G01X0033696Y0044220D01*
G01X0033803Y0044219D01*
G01X0033901Y0044260D01*
G01X0033977Y0044335D01*
G01X0034017Y0044434D01*
G01X0034018Y0044541D01*
G01X0034018Y0042923D01*
G01X0033972Y0042953D01*
G01X0033800Y0042988D01*
G01X0033751Y0042988D01*
G01X0033751Y0043212D01*
G01X0033733Y0043298D01*
G01X0033733Y0043298D01*
G01X0033685Y0043371D01*
G01X0033685Y0043371D01*
G01X0033359Y0043697D01*
G01X0033286Y0043745D01*
G01X0033271Y0043748D01*
G01X0033200Y0043763D01*
G01X0033199Y0043763D01*
G01X0032700Y0043763D01*
G01X0034624Y0046386D01*
G01X0036750Y0046290D01*
G01X0036824Y0034127D01*
G01X0036824Y0034127D01*
G37*
G54D62*
G01X0036824Y0034127D02*
G01X0035099Y0032212D01*
G01X0035099Y0032212D02*
G01X0035099Y0033377D01*
G01X0035099Y0033377D02*
G01X0035099Y0034421D01*
G01X0035099Y0034421D02*
G01X0035076Y0034476D01*
G01X0035076Y0034476D02*
G01X0035034Y0034518D01*
G01X0035034Y0034518D02*
G01X0034979Y0034541D01*
G01X0034979Y0034541D02*
G01X0034919Y0034541D01*
G01X0034919Y0034541D02*
G01X0034387Y0034541D01*
G01X0034387Y0034541D02*
G01X0034350Y0034504D01*
G01X0034350Y0034504D02*
G01X0034350Y0033949D01*
G01X0034350Y0033949D02*
G01X0035062Y0033949D01*
G01X0035062Y0033949D02*
G01X0035099Y0033986D01*
G01X0035099Y0033986D02*
G01X0035099Y0034421D01*
G01X0035099Y0034421D02*
G01X0035099Y0033377D01*
G01X0035099Y0033377D02*
G01X0035099Y0033811D01*
G01X0035099Y0033811D02*
G01X0035062Y0033849D01*
G01X0035062Y0033849D02*
G01X0034350Y0033849D01*
G01X0034350Y0033849D02*
G01X0034350Y0033294D01*
G01X0034350Y0033294D02*
G01X0034387Y0033257D01*
G01X0034387Y0033257D02*
G01X0034919Y0033257D01*
G01X0034919Y0033257D02*
G01X0034979Y0033257D01*
G01X0034979Y0033257D02*
G01X0035034Y0033280D01*
G01X0035034Y0033280D02*
G01X0035076Y0033322D01*
G01X0035076Y0033322D02*
G01X0035099Y0033377D01*
G01X0035099Y0033377D02*
G01X0035099Y0032212D01*
G01X0035099Y0032212D02*
G01X0035077Y0032188D01*
G01X0035077Y0032188D02*
G01X0033650Y0032188D01*
G01X0033650Y0032188D02*
G01X0033650Y0033257D01*
G01X0033650Y0033257D02*
G01X0033680Y0033257D01*
G01X0033680Y0033257D02*
G01X0034212Y0033257D01*
G01X0034212Y0033257D02*
G01X0034250Y0033294D01*
G01X0034250Y0033294D02*
G01X0034250Y0033849D01*
G01X0034250Y0033849D02*
G01X0034242Y0033849D01*
G01X0034242Y0033849D02*
G01X0034242Y0033949D01*
G01X0034242Y0033949D02*
G01X0034250Y0033949D01*
G01X0034250Y0033949D02*
G01X0034250Y0034504D01*
G01X0034250Y0034504D02*
G01X0034212Y0034541D01*
G01X0034212Y0034541D02*
G01X0033680Y0034541D01*
G01X0033680Y0034541D02*
G01X0033620Y0034541D01*
G01X0033620Y0034541D02*
G01X0033565Y0034518D01*
G01X0033565Y0034518D02*
G01X0033523Y0034476D01*
G01X0033523Y0034476D02*
G01X0033500Y0034421D01*
G01X0033500Y0034421D02*
G01X0033500Y0034187D01*
G01X0033500Y0034187D02*
G01X0033254Y0034186D01*
G01X0033254Y0034186D02*
G01X0033212Y0034250D01*
G01X0033212Y0034250D02*
G01X0033114Y0034315D01*
G01X0033114Y0034315D02*
G01X0033000Y0034338D01*
G01X0033000Y0034338D02*
G01X0032885Y0034315D01*
G01X0032885Y0034315D02*
G01X0032787Y0034250D01*
G01X0032787Y0034250D02*
G01X0032744Y0034184D01*
G01X0032744Y0034184D02*
G01X0032535Y0034184D01*
G01X0032535Y0034184D02*
G01X0032535Y0034727D01*
G01X0032535Y0034727D02*
G01X0032535Y0034896D01*
G01X0032535Y0034896D02*
G01X0032498Y0034934D01*
G01X0032498Y0034934D02*
G01X0032150Y0034934D01*
G01X0032150Y0034934D02*
G01X0032150Y0034645D01*
G01X0032150Y0034645D02*
G01X0032187Y0034607D01*
G01X0032187Y0034607D02*
G01X0032355Y0034607D01*
G01X0032355Y0034607D02*
G01X0032415Y0034607D01*
G01X0032415Y0034607D02*
G01X0032470Y0034630D01*
G01X0032470Y0034630D02*
G01X0032512Y0034672D01*
G01X0032512Y0034672D02*
G01X0032535Y0034727D01*
G01X0032535Y0034727D02*
G01X0032535Y0034184D01*
G01X0032535Y0034184D02*
G01X0032050Y0034182D01*
G01X0032050Y0034182D02*
G01X0032050Y0034645D01*
G01X0032050Y0034645D02*
G01X0032050Y0034934D01*
G01X0032050Y0034934D02*
G01X0031702Y0034934D01*
G01X0031702Y0034934D02*
G01X0031664Y0034896D01*
G01X0031664Y0034896D02*
G01X0031664Y0034727D01*
G01X0031664Y0034727D02*
G01X0031687Y0034672D01*
G01X0031687Y0034672D02*
G01X0031729Y0034630D01*
G01X0031729Y0034630D02*
G01X0031784Y0034607D01*
G01X0031784Y0034607D02*
G01X0031844Y0034607D01*
G01X0031844Y0034607D02*
G01X0032012Y0034607D01*
G01X0032012Y0034607D02*
G01X0032050Y0034645D01*
G01X0032050Y0034645D02*
G01X0032050Y0034182D01*
G01X0032050Y0034182D02*
G01X0031641Y0034180D01*
G01X0031641Y0034180D02*
G01X0031641Y0034782D01*
G01X0031641Y0034782D02*
G01X0031618Y0034837D01*
G01X0031618Y0034837D02*
G01X0031576Y0034880D01*
G01X0031576Y0034880D02*
G01X0031521Y0034902D01*
G01X0031521Y0034902D02*
G01X0031461Y0034903D01*
G01X0031461Y0034903D02*
G01X0031333Y0034903D01*
G01X0031333Y0034903D02*
G01X0031333Y0034993D01*
G01X0031333Y0034993D02*
G01X0031481Y0035142D01*
G01X0031481Y0035142D02*
G01X0031664Y0035142D01*
G01X0031664Y0035142D02*
G01X0031664Y0035071D01*
G01X0031664Y0035071D02*
G01X0031702Y0035034D01*
G01X0031702Y0035034D02*
G01X0032050Y0035034D01*
G01X0032050Y0035034D02*
G01X0032050Y0035041D01*
G01X0032050Y0035041D02*
G01X0032150Y0035041D01*
G01X0032150Y0035041D02*
G01X0032150Y0035034D01*
G01X0032150Y0035034D02*
G01X0032498Y0035034D01*
G01X0032498Y0035034D02*
G01X0032535Y0035071D01*
G01X0032535Y0035071D02*
G01X0032535Y0035240D01*
G01X0032535Y0035240D02*
G01X0032512Y0035295D01*
G01X0032512Y0035295D02*
G01X0032495Y0035312D01*
G01X0032495Y0035312D02*
G01X0032608Y0035481D01*
G01X0032608Y0035481D02*
G01X0032650Y0035692D01*
G01X0032650Y0035692D02*
G01X0032608Y0035902D01*
G01X0032608Y0035902D02*
G01X0032550Y0035989D01*
G01X0032550Y0035989D02*
G01X0032550Y0036673D01*
G01X0032550Y0036673D02*
G01X0032579Y0036673D01*
G01X0032579Y0036673D02*
G01X0032634Y0036696D01*
G01X0032634Y0036696D02*
G01X0032677Y0036738D01*
G01X0032677Y0036738D02*
G01X0032699Y0036794D01*
G01X0032699Y0036794D02*
G01X0032700Y0036853D01*
G01X0032700Y0036853D02*
G01X0032700Y0037164D01*
G01X0032700Y0037164D02*
G01X0032752Y0036898D01*
G01X0032752Y0036898D02*
G01X0032956Y0036594D01*
G01X0032956Y0036594D02*
G01X0033503Y0036047D01*
G01X0033503Y0036047D02*
G01X0033523Y0035999D01*
G01X0033523Y0035999D02*
G01X0033565Y0035957D01*
G01X0033565Y0035957D02*
G01X0033613Y0035937D01*
G01X0033613Y0035937D02*
G01X0033637Y0035913D01*
G01X0033637Y0035913D02*
G01X0033637Y0035913D01*
G01X0033637Y0035913D02*
G01X0033840Y0035777D01*
G01X0033840Y0035777D02*
G01X0033941Y0035710D01*
G01X0033941Y0035710D02*
G01X0033941Y0035710D01*
G01X0033941Y0035710D02*
G01X0034299Y0035639D01*
G01X0034299Y0035639D02*
G01X0034300Y0035639D01*
G01X0034300Y0035639D02*
G01X0034658Y0035710D01*
G01X0034658Y0035710D02*
G01X0034658Y0035710D01*
G01X0034658Y0035710D02*
G01X0034962Y0035913D01*
G01X0034962Y0035913D02*
G01X0034986Y0035937D01*
G01X0034986Y0035937D02*
G01X0035034Y0035957D01*
G01X0035034Y0035957D02*
G01X0035076Y0035999D01*
G01X0035076Y0035999D02*
G01X0035096Y0036047D01*
G01X0035096Y0036047D02*
G01X0035563Y0036513D01*
G01X0035563Y0036513D02*
G01X0036299Y0036513D01*
G01X0036299Y0036513D02*
G01X0036354Y0036536D01*
G01X0036354Y0036536D02*
G01X0036396Y0036578D01*
G01X0036396Y0036578D02*
G01X0036419Y0036634D01*
G01X0036419Y0036634D02*
G01X0036419Y0036693D01*
G01X0036419Y0036693D02*
G01X0036419Y0037101D01*
G01X0036419Y0037101D02*
G01X0036466Y0037171D01*
G01X0036466Y0037171D02*
G01X0036537Y0037530D01*
G01X0036537Y0037530D02*
G01X0036537Y0037530D01*
G01X0036537Y0037530D02*
G01X0036477Y0037829D01*
G01X0036477Y0037829D02*
G01X0036466Y0037888D01*
G01X0036466Y0037888D02*
G01X0036466Y0037888D01*
G01X0036466Y0037888D02*
G01X0036419Y0037958D01*
G01X0036419Y0037958D02*
G01X0036419Y0037958D01*
G01X0036419Y0037958D02*
G01X0036419Y0038425D01*
G01X0036419Y0038425D02*
G01X0036396Y0038480D01*
G01X0036396Y0038480D02*
G01X0036354Y0038523D01*
G01X0036354Y0038523D02*
G01X0036299Y0038545D01*
G01X0036299Y0038545D02*
G01X0036239Y0038546D01*
G01X0036239Y0038546D02*
G01X0035828Y0038546D01*
G01X0035828Y0038546D02*
G01X0035769Y0038585D01*
G01X0035769Y0038585D02*
G01X0035411Y0038656D01*
G01X0035411Y0038656D02*
G01X0033619Y0038656D01*
G01X0033619Y0038656D02*
G01X0033260Y0038585D01*
G01X0033260Y0038585D02*
G01X0032956Y0038381D01*
G01X0032956Y0038381D02*
G01X0032813Y0038169D01*
G01X0032813Y0038169D02*
G01X0032700Y0038169D01*
G01X0032700Y0038169D02*
G01X0032700Y0038300D01*
G01X0032700Y0038300D02*
G01X0032662Y0038338D01*
G01X0032662Y0038338D02*
G01X0032150Y0038338D01*
G01X0032150Y0038338D02*
G01X0032150Y0038330D01*
G01X0032150Y0038330D02*
G01X0032050Y0038330D01*
G01X0032050Y0038330D02*
G01X0032050Y0038338D01*
G01X0032050Y0038338D02*
G01X0031537Y0038338D01*
G01X0031537Y0038338D02*
G01X0031500Y0038300D01*
G01X0031500Y0038300D02*
G01X0031499Y0038133D01*
G01X0031499Y0038133D02*
G01X0031522Y0038078D01*
G01X0031522Y0038078D02*
G01X0031547Y0038053D01*
G01X0031547Y0038053D02*
G01X0031522Y0038029D01*
G01X0031522Y0038029D02*
G01X0031500Y0037973D01*
G01X0031500Y0037973D02*
G01X0031499Y0037914D01*
G01X0031499Y0037914D02*
G01X0031499Y0037464D01*
G01X0031499Y0037464D02*
G01X0031522Y0037409D01*
G01X0031522Y0037409D02*
G01X0031547Y0037383D01*
G01X0031547Y0037383D02*
G01X0031522Y0037359D01*
G01X0031522Y0037359D02*
G01X0031500Y0037303D01*
G01X0031500Y0037303D02*
G01X0031499Y0037244D01*
G01X0031499Y0037244D02*
G01X0031499Y0036794D01*
G01X0031499Y0036794D02*
G01X0031522Y0036739D01*
G01X0031522Y0036739D02*
G01X0031564Y0036696D01*
G01X0031564Y0036696D02*
G01X0031620Y0036674D01*
G01X0031620Y0036674D02*
G01X0031650Y0036674D01*
G01X0031650Y0036674D02*
G01X0031650Y0036242D01*
G01X0031650Y0036242D02*
G01X0031254Y0036242D01*
G01X0031254Y0036242D02*
G01X0031043Y0036200D01*
G01X0031043Y0036200D02*
G01X0030865Y0036080D01*
G01X0030865Y0036080D02*
G01X0030394Y0035609D01*
G01X0030394Y0035609D02*
G01X0030274Y0035431D01*
G01X0030274Y0035431D02*
G01X0030233Y0035221D01*
G01X0030233Y0035221D02*
G01X0030233Y0034903D01*
G01X0030233Y0034903D02*
G01X0030044Y0034903D01*
G01X0030044Y0034903D02*
G01X0029989Y0034880D01*
G01X0029989Y0034880D02*
G01X0029968Y0034859D01*
G01X0029968Y0034859D02*
G01X0029968Y0036232D01*
G01X0029968Y0036232D02*
G01X0029968Y0038300D01*
G01X0029968Y0038300D02*
G01X0029931Y0038338D01*
G01X0029931Y0038338D02*
G01X0027900Y0038338D01*
G01X0027900Y0038338D02*
G01X0027900Y0036149D01*
G01X0027900Y0036149D02*
G01X0027937Y0036112D01*
G01X0027937Y0036112D02*
G01X0029788Y0036111D01*
G01X0029788Y0036111D02*
G01X0029848Y0036112D01*
G01X0029848Y0036112D02*
G01X0029903Y0036134D01*
G01X0029903Y0036134D02*
G01X0029945Y0036177D01*
G01X0029945Y0036177D02*
G01X0029968Y0036232D01*
G01X0029968Y0036232D02*
G01X0029968Y0034859D01*
G01X0029968Y0034859D02*
G01X0029947Y0034838D01*
G01X0029947Y0034838D02*
G01X0029924Y0034782D01*
G01X0029924Y0034782D02*
G01X0029924Y0034723D01*
G01X0029924Y0034723D02*
G01X0029924Y0034357D01*
G01X0029924Y0034357D02*
G01X0029741Y0034174D01*
G01X0029741Y0034174D02*
G01X0029475Y0034173D01*
G01X0029475Y0034173D02*
G01X0029475Y0034723D01*
G01X0029475Y0034723D02*
G01X0029475Y0034782D01*
G01X0029475Y0034782D02*
G01X0029452Y0034838D01*
G01X0029452Y0034838D02*
G01X0029410Y0034880D01*
G01X0029410Y0034880D02*
G01X0029355Y0034903D01*
G01X0029355Y0034903D02*
G01X0028704Y0034903D01*
G01X0028704Y0034903D02*
G01X0028667Y0034865D01*
G01X0028667Y0034865D02*
G01X0028667Y0034488D01*
G01X0028667Y0034488D02*
G01X0029438Y0034488D01*
G01X0029438Y0034488D02*
G01X0029475Y0034525D01*
G01X0029475Y0034525D02*
G01X0029475Y0034723D01*
G01X0029475Y0034723D02*
G01X0029475Y0034173D01*
G01X0029475Y0034173D02*
G01X0029475Y0034173D01*
G01X0029475Y0034173D02*
G01X0029475Y0034350D01*
G01X0029475Y0034350D02*
G01X0029438Y0034388D01*
G01X0029438Y0034388D02*
G01X0028667Y0034388D01*
G01X0028667Y0034388D02*
G01X0028667Y0034380D01*
G01X0028667Y0034380D02*
G01X0028567Y0034380D01*
G01X0028567Y0034380D02*
G01X0028567Y0034388D01*
G01X0028567Y0034388D02*
G01X0028567Y0034488D01*
G01X0028567Y0034488D02*
G01X0028567Y0034865D01*
G01X0028567Y0034865D02*
G01X0028529Y0034903D01*
G01X0028529Y0034903D02*
G01X0027878Y0034903D01*
G01X0027878Y0034903D02*
G01X0027823Y0034880D01*
G01X0027823Y0034880D02*
G01X0027800Y0034856D01*
G01X0027800Y0034856D02*
G01X0027800Y0036149D01*
G01X0027800Y0036149D02*
G01X0027800Y0038338D01*
G01X0027800Y0038338D02*
G01X0025769Y0038338D01*
G01X0025769Y0038338D02*
G01X0025731Y0038300D01*
G01X0025731Y0038300D02*
G01X0025731Y0036232D01*
G01X0025731Y0036232D02*
G01X0025754Y0036177D01*
G01X0025754Y0036177D02*
G01X0025796Y0036134D01*
G01X0025796Y0036134D02*
G01X0025851Y0036112D01*
G01X0025851Y0036112D02*
G01X0025911Y0036111D01*
G01X0025911Y0036111D02*
G01X0027762Y0036112D01*
G01X0027762Y0036112D02*
G01X0027800Y0036149D01*
G01X0027800Y0036149D02*
G01X0027800Y0034856D01*
G01X0027800Y0034856D02*
G01X0027781Y0034838D01*
G01X0027781Y0034838D02*
G01X0027758Y0034782D01*
G01X0027758Y0034782D02*
G01X0027758Y0034723D01*
G01X0027758Y0034723D02*
G01X0027758Y0034525D01*
G01X0027758Y0034525D02*
G01X0027796Y0034488D01*
G01X0027796Y0034488D02*
G01X0028567Y0034488D01*
G01X0028567Y0034488D02*
G01X0028567Y0034388D01*
G01X0028567Y0034388D02*
G01X0027796Y0034388D01*
G01X0027796Y0034388D02*
G01X0027758Y0034350D01*
G01X0027758Y0034350D02*
G01X0027758Y0034166D01*
G01X0027758Y0034166D02*
G01X0027650Y0034166D01*
G01X0027650Y0034166D02*
G01X0027650Y0034238D01*
G01X0027650Y0034238D02*
G01X0027608Y0034448D01*
G01X0027608Y0034448D02*
G01X0027488Y0034626D01*
G01X0027488Y0034626D02*
G01X0027322Y0034738D01*
G01X0027322Y0034738D02*
G01X0027397Y0034787D01*
G01X0027397Y0034787D02*
G01X0027429Y0034787D01*
G01X0027429Y0034787D02*
G01X0027484Y0034810D01*
G01X0027484Y0034810D02*
G01X0027527Y0034852D01*
G01X0027527Y0034852D02*
G01X0027549Y0034908D01*
G01X0027549Y0034908D02*
G01X0027550Y0034940D01*
G01X0027550Y0034940D02*
G01X0027608Y0035027D01*
G01X0027608Y0035027D02*
G01X0027650Y0035238D01*
G01X0027650Y0035238D02*
G01X0027608Y0035448D01*
G01X0027608Y0035448D02*
G01X0027550Y0035535D01*
G01X0027550Y0035535D02*
G01X0027550Y0035567D01*
G01X0027550Y0035567D02*
G01X0027527Y0035622D01*
G01X0027527Y0035622D02*
G01X0027485Y0035665D01*
G01X0027485Y0035665D02*
G01X0027429Y0035687D01*
G01X0027429Y0035687D02*
G01X0027397Y0035688D01*
G01X0027397Y0035688D02*
G01X0027310Y0035746D01*
G01X0027310Y0035746D02*
G01X0027100Y0035788D01*
G01X0027100Y0035788D02*
G01X0026487Y0035788D01*
G01X0026487Y0035788D02*
G01X0026485Y0035790D01*
G01X0026485Y0035790D02*
G01X0026429Y0035813D01*
G01X0026429Y0035813D02*
G01X0026370Y0035813D01*
G01X0026370Y0035813D02*
G01X0025370Y0035813D01*
G01X0025370Y0035813D02*
G01X0025345Y0035803D01*
G01X0025345Y0035803D02*
G01X0025345Y0040172D01*
G01X0025345Y0040172D02*
G01X0025421Y0040172D01*
G01X0025421Y0040172D02*
G01X0025476Y0040195D01*
G01X0025476Y0040195D02*
G01X0025518Y0040237D01*
G01X0025518Y0040237D02*
G01X0025541Y0040293D01*
G01X0025541Y0040293D02*
G01X0025541Y0040327D01*
G01X0025541Y0040327D02*
G01X0025731Y0040328D01*
G01X0025731Y0040328D02*
G01X0025731Y0038475D01*
G01X0025731Y0038475D02*
G01X0025769Y0038438D01*
G01X0025769Y0038438D02*
G01X0027800Y0038438D01*
G01X0027800Y0038438D02*
G01X0027800Y0038445D01*
G01X0027800Y0038445D02*
G01X0027900Y0038445D01*
G01X0027900Y0038445D02*
G01X0027900Y0038438D01*
G01X0027900Y0038438D02*
G01X0029931Y0038438D01*
G01X0029931Y0038438D02*
G01X0029968Y0038475D01*
G01X0029968Y0038475D02*
G01X0029968Y0040367D01*
G01X0029968Y0040367D02*
G01X0029980Y0040367D01*
G01X0029980Y0040367D02*
G01X0029974Y0040338D01*
G01X0029974Y0040338D02*
G01X0029975Y0040337D01*
G01X0029975Y0040337D02*
G01X0029975Y0039238D01*
G01X0029975Y0039238D02*
G01X0029974Y0039238D01*
G01X0029974Y0039238D02*
G01X0029989Y0039166D01*
G01X0029989Y0039166D02*
G01X0029992Y0039151D01*
G01X0029992Y0039151D02*
G01X0030040Y0039078D01*
G01X0030040Y0039078D02*
G01X0030221Y0038897D01*
G01X0030221Y0038897D02*
G01X0030221Y0038897D01*
G01X0030221Y0038897D02*
G01X0030294Y0038849D01*
G01X0030294Y0038849D02*
G01X0030381Y0038832D01*
G01X0030381Y0038832D02*
G01X0031499Y0038832D01*
G01X0031499Y0038832D02*
G01X0031499Y0038802D01*
G01X0031499Y0038802D02*
G01X0031522Y0038747D01*
G01X0031522Y0038747D02*
G01X0031547Y0038722D01*
G01X0031547Y0038722D02*
G01X0031522Y0038697D01*
G01X0031522Y0038697D02*
G01X0031499Y0038642D01*
G01X0031499Y0038642D02*
G01X0031500Y0038475D01*
G01X0031500Y0038475D02*
G01X0031537Y0038438D01*
G01X0031537Y0038438D02*
G01X0032050Y0038438D01*
G01X0032050Y0038438D02*
G01X0032050Y0038445D01*
G01X0032050Y0038445D02*
G01X0032150Y0038445D01*
G01X0032150Y0038445D02*
G01X0032150Y0038438D01*
G01X0032150Y0038438D02*
G01X0032662Y0038438D01*
G01X0032662Y0038438D02*
G01X0032700Y0038475D01*
G01X0032700Y0038475D02*
G01X0032700Y0038642D01*
G01X0032700Y0038642D02*
G01X0032677Y0038697D01*
G01X0032677Y0038697D02*
G01X0032652Y0038722D01*
G01X0032652Y0038722D02*
G01X0032677Y0038746D01*
G01X0032677Y0038746D02*
G01X0032699Y0038802D01*
G01X0032699Y0038802D02*
G01X0032700Y0038861D01*
G01X0032700Y0038861D02*
G01X0032700Y0039311D01*
G01X0032700Y0039311D02*
G01X0032677Y0039366D01*
G01X0032677Y0039366D02*
G01X0032652Y0039392D01*
G01X0032652Y0039392D02*
G01X0032677Y0039417D01*
G01X0032677Y0039417D02*
G01X0032700Y0039472D01*
G01X0032700Y0039472D02*
G01X0032700Y0039981D01*
G01X0032700Y0039981D02*
G01X0032677Y0040036D01*
G01X0032677Y0040036D02*
G01X0032635Y0040079D01*
G01X0032635Y0040079D02*
G01X0032579Y0040101D01*
G01X0032579Y0040101D02*
G01X0032520Y0040102D01*
G01X0032520Y0040102D02*
G01X0032187Y0040102D01*
G01X0032187Y0040102D02*
G01X0032150Y0040064D01*
G01X0032150Y0040064D02*
G01X0032150Y0039777D01*
G01X0032150Y0039777D02*
G01X0032662Y0039777D01*
G01X0032662Y0039777D02*
G01X0032700Y0039814D01*
G01X0032700Y0039814D02*
G01X0032700Y0039981D01*
G01X0032700Y0039981D02*
G01X0032700Y0039472D01*
G01X0032700Y0039472D02*
G01X0032700Y0039639D01*
G01X0032700Y0039639D02*
G01X0032662Y0039677D01*
G01X0032662Y0039677D02*
G01X0032150Y0039677D01*
G01X0032150Y0039677D02*
G01X0032150Y0039669D01*
G01X0032150Y0039669D02*
G01X0032050Y0039669D01*
G01X0032050Y0039669D02*
G01X0032050Y0039677D01*
G01X0032050Y0039677D02*
G01X0032050Y0039777D01*
G01X0032050Y0039777D02*
G01X0032050Y0040064D01*
G01X0032050Y0040064D02*
G01X0032012Y0040102D01*
G01X0032012Y0040102D02*
G01X0031679Y0040102D01*
G01X0031679Y0040102D02*
G01X0031620Y0040101D01*
G01X0031620Y0040101D02*
G01X0031564Y0040079D01*
G01X0031564Y0040079D02*
G01X0031522Y0040036D01*
G01X0031522Y0040036D02*
G01X0031499Y0039981D01*
G01X0031499Y0039981D02*
G01X0031500Y0039814D01*
G01X0031500Y0039814D02*
G01X0031537Y0039777D01*
G01X0031537Y0039777D02*
G01X0032050Y0039777D01*
G01X0032050Y0039777D02*
G01X0032050Y0039677D01*
G01X0032050Y0039677D02*
G01X0031537Y0039677D01*
G01X0031537Y0039677D02*
G01X0031500Y0039639D01*
G01X0031500Y0039639D02*
G01X0031499Y0039472D01*
G01X0031499Y0039472D02*
G01X0031522Y0039417D01*
G01X0031522Y0039417D02*
G01X0031547Y0039391D01*
G01X0031547Y0039391D02*
G01X0031522Y0039367D01*
G01X0031522Y0039367D02*
G01X0031500Y0039311D01*
G01X0031500Y0039311D02*
G01X0031499Y0039282D01*
G01X0031499Y0039282D02*
G01X0030474Y0039282D01*
G01X0030474Y0039282D02*
G01X0030425Y0039331D01*
G01X0030425Y0039331D02*
G01X0030425Y0040244D01*
G01X0030425Y0040244D02*
G01X0030552Y0040372D01*
G01X0030552Y0040372D02*
G01X0032340Y0040388D01*
G01X0032340Y0040388D02*
G01X0032550Y0041333D01*
G01X0032550Y0041333D02*
G01X0032523Y0041887D01*
G01X0032523Y0041887D02*
G01X0033155Y0041887D01*
G01X0033155Y0041887D02*
G01X0033210Y0041910D01*
G01X0033210Y0041910D02*
G01X0033252Y0041952D01*
G01X0033252Y0041952D02*
G01X0033275Y0042008D01*
G01X0033275Y0042008D02*
G01X0033275Y0042067D01*
G01X0033275Y0042067D02*
G01X0033275Y0042174D01*
G01X0033275Y0042174D02*
G01X0033280Y0042170D01*
G01X0033280Y0042170D02*
G01X0033290Y0042160D01*
G01X0033290Y0042160D02*
G01X0033304Y0042155D01*
G01X0033304Y0042155D02*
G01X0033353Y0042122D01*
G01X0033353Y0042122D02*
G01X0033517Y0042089D01*
G01X0033517Y0042089D02*
G01X0033611Y0041949D01*
G01X0033611Y0041949D02*
G01X0033789Y0041829D01*
G01X0033789Y0041829D02*
G01X0034000Y0041788D01*
G01X0034000Y0041788D02*
G01X0034580Y0041788D01*
G01X0034580Y0041788D02*
G01X0034780Y0041587D01*
G01X0034780Y0041587D02*
G01X0034780Y0040650D01*
G01X0034780Y0040650D02*
G01X0034803Y0040595D01*
G01X0034803Y0040595D02*
G01X0034845Y0040552D01*
G01X0034845Y0040552D02*
G01X0034900Y0040530D01*
G01X0034900Y0040530D02*
G01X0034960Y0040529D01*
G01X0034960Y0040529D02*
G01X0036299Y0040529D01*
G01X0036299Y0040529D02*
G01X0036354Y0040552D01*
G01X0036354Y0040552D02*
G01X0036396Y0040594D01*
G01X0036396Y0040594D02*
G01X0036419Y0040650D01*
G01X0036419Y0040650D02*
G01X0036419Y0040709D01*
G01X0036419Y0040709D02*
G01X0036419Y0042441D01*
G01X0036419Y0042441D02*
G01X0036396Y0042496D01*
G01X0036396Y0042496D02*
G01X0036354Y0042539D01*
G01X0036354Y0042539D02*
G01X0036299Y0042561D01*
G01X0036299Y0042561D02*
G01X0036239Y0042562D01*
G01X0036239Y0042562D02*
G01X0036050Y0042562D01*
G01X0036050Y0042562D02*
G01X0036050Y0042955D01*
G01X0036050Y0042955D02*
G01X0036008Y0043165D01*
G01X0036008Y0043165D02*
G01X0035965Y0043229D01*
G01X0035965Y0043229D02*
G01X0035965Y0043693D01*
G01X0035965Y0043693D02*
G01X0035965Y0044382D01*
G01X0035965Y0044382D02*
G01X0035965Y0045859D01*
G01X0035965Y0045859D02*
G01X0035942Y0045914D01*
G01X0035942Y0045914D02*
G01X0035900Y0045956D01*
G01X0035900Y0045956D02*
G01X0035844Y0045979D01*
G01X0035844Y0045979D02*
G01X0035785Y0045979D01*
G01X0035785Y0045979D02*
G01X0035587Y0045979D01*
G01X0035587Y0045979D02*
G01X0035550Y0045942D01*
G01X0035550Y0045942D02*
G01X0035550Y0045171D01*
G01X0035550Y0045171D02*
G01X0035927Y0045171D01*
G01X0035927Y0045171D02*
G01X0035965Y0045208D01*
G01X0035965Y0045208D02*
G01X0035965Y0045859D01*
G01X0035965Y0045859D02*
G01X0035965Y0044382D01*
G01X0035965Y0044382D02*
G01X0035965Y0045033D01*
G01X0035965Y0045033D02*
G01X0035927Y0045071D01*
G01X0035927Y0045071D02*
G01X0035550Y0045071D01*
G01X0035550Y0045071D02*
G01X0035550Y0044300D01*
G01X0035550Y0044300D02*
G01X0035587Y0044262D01*
G01X0035587Y0044262D02*
G01X0035785Y0044262D01*
G01X0035785Y0044262D02*
G01X0035844Y0044262D01*
G01X0035844Y0044262D02*
G01X0035900Y0044285D01*
G01X0035900Y0044285D02*
G01X0035942Y0044327D01*
G01X0035942Y0044327D02*
G01X0035965Y0044382D01*
G01X0035965Y0044382D02*
G01X0035965Y0043693D01*
G01X0035965Y0043693D02*
G01X0035942Y0043748D01*
G01X0035942Y0043748D02*
G01X0035900Y0043790D01*
G01X0035900Y0043790D02*
G01X0035844Y0043813D01*
G01X0035844Y0043813D02*
G01X0035785Y0043813D01*
G01X0035785Y0043813D02*
G01X0035450Y0043813D01*
G01X0035450Y0043813D02*
G01X0035450Y0044300D01*
G01X0035450Y0044300D02*
G01X0035450Y0045071D01*
G01X0035450Y0045071D02*
G01X0035450Y0045171D01*
G01X0035450Y0045171D02*
G01X0035450Y0045942D01*
G01X0035450Y0045942D02*
G01X0035412Y0045979D01*
G01X0035412Y0045979D02*
G01X0035214Y0045979D01*
G01X0035214Y0045979D02*
G01X0035155Y0045979D01*
G01X0035155Y0045979D02*
G01X0035099Y0045956D01*
G01X0035099Y0045956D02*
G01X0035057Y0045914D01*
G01X0035057Y0045914D02*
G01X0035034Y0045859D01*
G01X0035034Y0045859D02*
G01X0035035Y0045208D01*
G01X0035035Y0045208D02*
G01X0035072Y0045171D01*
G01X0035072Y0045171D02*
G01X0035450Y0045171D01*
G01X0035450Y0045171D02*
G01X0035450Y0045071D01*
G01X0035450Y0045071D02*
G01X0035072Y0045071D01*
G01X0035072Y0045071D02*
G01X0035035Y0045033D01*
G01X0035035Y0045033D02*
G01X0035034Y0044382D01*
G01X0035034Y0044382D02*
G01X0035057Y0044327D01*
G01X0035057Y0044327D02*
G01X0035099Y0044285D01*
G01X0035099Y0044285D02*
G01X0035155Y0044262D01*
G01X0035155Y0044262D02*
G01X0035214Y0044262D01*
G01X0035214Y0044262D02*
G01X0035412Y0044262D01*
G01X0035412Y0044262D02*
G01X0035450Y0044300D01*
G01X0035450Y0044300D02*
G01X0035450Y0043813D01*
G01X0035450Y0043813D02*
G01X0035155Y0043813D01*
G01X0035155Y0043813D02*
G01X0035100Y0043790D01*
G01X0035100Y0043790D02*
G01X0035057Y0043748D01*
G01X0035057Y0043748D02*
G01X0035035Y0043693D01*
G01X0035035Y0043693D02*
G01X0035034Y0043633D01*
G01X0035034Y0043633D02*
G01X0035034Y0043229D01*
G01X0035034Y0043229D02*
G01X0034991Y0043165D01*
G01X0034991Y0043165D02*
G01X0034950Y0042955D01*
G01X0034950Y0042955D02*
G01X0034950Y0042859D01*
G01X0034950Y0042859D02*
G01X0034808Y0042888D01*
G01X0034808Y0042888D02*
G01X0034070Y0042888D01*
G01X0034070Y0042888D02*
G01X0034018Y0042923D01*
G01X0034018Y0042923D02*
G01X0034018Y0044541D01*
G01X0034018Y0044541D02*
G01X0033977Y0044639D01*
G01X0033977Y0044639D02*
G01X0033902Y0044715D01*
G01X0033902Y0044715D02*
G01X0033803Y0044755D01*
G01X0033803Y0044755D02*
G01X0033696Y0044756D01*
G01X0033696Y0044756D02*
G01X0033598Y0044715D01*
G01X0033598Y0044715D02*
G01X0033522Y0044640D01*
G01X0033522Y0044640D02*
G01X0033482Y0044541D01*
G01X0033482Y0044541D02*
G01X0033481Y0044434D01*
G01X0033481Y0044434D02*
G01X0033522Y0044336D01*
G01X0033522Y0044336D02*
G01X0033597Y0044260D01*
G01X0033597Y0044260D02*
G01X0033696Y0044220D01*
G01X0033696Y0044220D02*
G01X0033803Y0044219D01*
G01X0033803Y0044219D02*
G01X0033901Y0044260D01*
G01X0033901Y0044260D02*
G01X0033977Y0044335D01*
G01X0033977Y0044335D02*
G01X0034017Y0044434D01*
G01X0034017Y0044434D02*
G01X0034018Y0044541D01*
G01X0034018Y0044541D02*
G01X0034018Y0042923D01*
G01X0034018Y0042923D02*
G01X0033972Y0042953D01*
G01X0033972Y0042953D02*
G01X0033800Y0042988D01*
G01X0033800Y0042988D02*
G01X0033751Y0042988D01*
G01X0033751Y0042988D02*
G01X0033751Y0043212D01*
G01X0033751Y0043212D02*
G01X0033733Y0043298D01*
G01X0033733Y0043298D02*
G01X0033733Y0043298D01*
G01X0033733Y0043298D02*
G01X0033685Y0043371D01*
G01X0033685Y0043371D02*
G01X0033685Y0043371D01*
G01X0033685Y0043371D02*
G01X0033359Y0043697D01*
G01X0033359Y0043697D02*
G01X0033286Y0043745D01*
G01X0033286Y0043745D02*
G01X0033271Y0043748D01*
G01X0033271Y0043748D02*
G01X0033200Y0043763D01*
G01X0033200Y0043763D02*
G01X0033199Y0043763D01*
G01X0033199Y0043763D02*
G01X0032700Y0043763D01*
G01X0032700Y0043763D02*
G01X0034624Y0046386D01*
G01X0034624Y0046386D02*
G01X0036750Y0046290D01*
G01X0036750Y0046290D02*
G01X0036824Y0034127D01*
M02*
